<?xml version="1.0" encoding="UTF-8" standalone="no"?>
<!DOCTYPE svg PUBLIC "-//W3C//DTD SVG 1.1//EN"
 "http://www.w3.org/Graphics/SVG/1.1/DTD/svg11.dtd">
<!-- Generated by graphviz version 2.38.0 (20140413.2041)
 -->
<!-- Title: G Pages: 1 -->
<svg width="375pt" height="184pt"
 viewBox="0.00 0.00 375.26 184.00" xmlns="http://www.w3.org/2000/svg" xmlns:xlink="http://www.w3.org/1999/xlink">
<g id="graph0" class="graph" transform="scale(1 1) rotate(0) translate(4 180)">
<title>G</title>
<polygon fill="white" stroke="none" points="-4,4 -4,-180 371.26,-180 371.26,4 -4,4"/>
<g id="clust1" class="cluster"><title>cluster_Global</title>
<path fill="none" stroke="gray" d="M164.834,-8C164.834,-8 347.26,-8 347.26,-8 353.26,-8 359.26,-14 359.26,-20 359.26,-20 359.26,-156 359.26,-156 359.26,-162 353.26,-168 347.26,-168 347.26,-168 164.834,-168 164.834,-168 158.834,-168 152.834,-162 152.834,-156 152.834,-156 152.834,-20 152.834,-20 152.834,-14 158.834,-8 164.834,-8"/>
<text text-anchor="middle" x="256.047" y="-155.2" font-family="Times,serif" font-size="11.00" fill="gray">Global</text>
</g>
<g id="clust2" class="cluster"><title>cluster_\Battis</title>
<path fill="none" stroke="gray" d="M172.834,-16C172.834,-16 339.26,-16 339.26,-16 345.26,-16 351.26,-22 351.26,-28 351.26,-28 351.26,-129 351.26,-129 351.26,-135 345.26,-141 339.26,-141 339.26,-141 172.834,-141 172.834,-141 166.834,-141 160.834,-135 160.834,-129 160.834,-129 160.834,-28 160.834,-28 160.834,-22 166.834,-16 172.834,-16"/>
<text text-anchor="middle" x="256.047" y="-128.2" font-family="Times,serif" font-size="11.00" fill="gray">Battis</text>
</g>
<!-- \\Battis\\AutoCrontabJob -->
<g id="node1" class="node"><title>\\Battis\\AutoCrontabJob</title>
<polygon fill="none" stroke="black" points="310.463,-114 201.631,-114 201.631,-78 310.463,-78 310.463,-114"/>
<text text-anchor="start" x="223.042" y="-98.2" font-family="Courier,monospace" font-size="11.00">«abstract»</text>
<text text-anchor="start" x="209.839" y="-87.2" font-family="Courier,monospace" font-size="11.00">AutoCrontabJob</text>
</g>
<!-- \\Battis\\AutoCrontabJob_Exception -->
<g id="node2" class="node"><title>\\Battis\\AutoCrontabJob_Exception</title>
<polygon fill="none" stroke="black" points="343.473,-60 168.621,-60 168.621,-24 343.473,-24 343.473,-60"/>
<text text-anchor="middle" x="256.047" y="-38.7" font-family="Courier,monospace" font-size="11.00">AutoCrontabJob_Exception</text>
</g>
<!-- \\Exception -->
<g id="node3" class="node"><title>\\Exception</title>
<ellipse fill="none" stroke="black" cx="48.417" cy="-42" rx="48.3341" ry="18"/>
<text text-anchor="middle" x="48.417" y="-37.8" font-family="Times,serif" font-size="14.00" fill="gray">\Exception</text>
</g>
<!-- \\Battis\\AutoCrontabJob_Exception&#45;&gt;\\Exception -->
<g id="edge1" class="edge"><title>\\Battis\\AutoCrontabJob_Exception&#45;&gt;\\Exception</title>
<path fill="none" stroke="black" d="M168.735,-42C147.866,-42 126.066,-42 106.895,-42"/>
<polygon fill="none" stroke="black" points="106.835,-38.5001 96.8347,-42 106.835,-45.5001 106.835,-38.5001"/>
</g>
</g>
</svg>
