<?xml version="1.0" encoding="UTF-8" standalone="no"?>
<!DOCTYPE svg PUBLIC "-//W3C//DTD SVG 1.1//EN"
 "http://www.w3.org/Graphics/SVG/1.1/DTD/svg11.dtd">
<!-- Generated by graphviz version 2.38.0 (20140413.2041)
 -->
<!-- Title: G Pages: 1 -->
<svg width="400pt" height="149pt"
 viewBox="0.00 0.00 400.27 149.00" xmlns="http://www.w3.org/2000/svg" xmlns:xlink="http://www.w3.org/1999/xlink">
<g id="graph0" class="graph" transform="scale(1 1) rotate(0) translate(4 145)">
<title>G</title>
<polygon fill="white" stroke="none" points="-4,4 -4,-145 396.265,-145 396.265,4 -4,4"/>
<g id="clust1" class="cluster"><title>cluster_Global</title>
<path fill="none" stroke="gray" d="M172.834,-8C172.834,-8 372.265,-8 372.265,-8 378.265,-8 384.265,-14 384.265,-20 384.265,-20 384.265,-121 384.265,-121 384.265,-127 378.265,-133 372.265,-133 372.265,-133 172.834,-133 172.834,-133 166.834,-133 160.834,-127 160.834,-121 160.834,-121 160.834,-20 160.834,-20 160.834,-14 166.834,-8 172.834,-8"/>
<text text-anchor="middle" x="272.55" y="-120.2" font-family="Times,serif" font-size="11.00" fill="gray">Global</text>
</g>
<!-- \\CanvasDataCollector -->
<g id="node1" class="node"><title>\\CanvasDataCollector</title>
<polygon fill="none" stroke="black" points="343.471,-106 201.629,-106 201.629,-70 343.471,-70 343.471,-106"/>
<text text-anchor="start" x="239.544" y="-90.2" font-family="Courier,monospace" font-size="11.00">«abstract»</text>
<text text-anchor="start" x="209.839" y="-79.2" font-family="Courier,monospace" font-size="11.00">CanvasDataCollector</text>
</g>
<!-- \\CanvasDataCollector_Exception -->
<g id="node2" class="node"><title>\\CanvasDataCollector_Exception</title>
<polygon fill="none" stroke="black" points="376.481,-52 168.618,-52 168.618,-16 376.481,-16 376.481,-52"/>
<text text-anchor="middle" x="272.55" y="-30.7" font-family="Courier,monospace" font-size="11.00">CanvasDataCollector_Exception</text>
</g>
<!-- \\Exception -->
<g id="node3" class="node"><title>\\Exception</title>
<ellipse fill="none" stroke="black" cx="48.417" cy="-34" rx="48.3341" ry="18"/>
<text text-anchor="middle" x="48.417" y="-29.8" font-family="Times,serif" font-size="14.00" fill="gray">\Exception</text>
</g>
<!-- \\CanvasDataCollector_Exception&#45;&gt;\\Exception -->
<g id="edge1" class="edge"><title>\\CanvasDataCollector_Exception&#45;&gt;\\Exception</title>
<path fill="none" stroke="black" d="M168.612,-34C147.45,-34 125.892,-34 107.034,-34"/>
<polygon fill="none" stroke="black" points="106.854,-30.5001 96.8544,-34 106.854,-37.5001 106.854,-30.5001"/>
</g>
</g>
</svg>
