<?xml version="1.0" encoding="UTF-8" standalone="no"?>
<!DOCTYPE svg PUBLIC "-//W3C//DTD SVG 1.1//EN"
 "http://www.w3.org/Graphics/SVG/1.1/DTD/svg11.dtd">
<!-- Generated by graphviz version 2.40.1 (20161225.0304)
 -->
<!-- Title: G Pages: 1 -->
<svg width="164pt" height="130pt"
 viewBox="0.00 0.00 164.42 130.00" xmlns="http://www.w3.org/2000/svg" xmlns:xlink="http://www.w3.org/1999/xlink">
<g id="graph0" class="graph" transform="scale(1 1) rotate(0) translate(4 126)">
<title>G</title>
<polygon fill="#ffffff" stroke="transparent" points="-4,4 -4,-126 160.415,-126 160.415,4 -4,4"/>
<g id="clust1" class="cluster">
<title>cluster_Global</title>
<path fill="none" stroke="#c0c0c0" d="M20,-8C20,-8 136.415,-8 136.415,-8 142.415,-8 148.415,-14 148.415,-20 148.415,-20 148.415,-102 148.415,-102 148.415,-108 142.415,-114 136.415,-114 136.415,-114 20,-114 20,-114 14,-114 8,-108 8,-102 8,-102 8,-20 8,-20 8,-14 14,-8 20,-8"/>
<text text-anchor="middle" x="78.2075" y="-101.2" font-family="Times,serif" font-size="11.00" fill="#c0c0c0">Global</text>
</g>
<g id="clust2" class="cluster">
<title>cluster_\Battis</title>
<path fill="none" stroke="#c0c0c0" d="M28,-16C28,-16 128.415,-16 128.415,-16 134.415,-16 140.415,-22 140.415,-28 140.415,-28 140.415,-75 140.415,-75 140.415,-81 134.415,-87 128.415,-87 128.415,-87 28,-87 28,-87 22,-87 16,-81 16,-75 16,-75 16,-28 16,-28 16,-22 22,-16 28,-16"/>
<text text-anchor="middle" x="78.2075" y="-74.2" font-family="Times,serif" font-size="11.00" fill="#c0c0c0">Battis</text>
</g>
<!-- \\Battis\\AutoCrontabJob -->
<g id="node1" class="node">
<title>\\Battis\\AutoCrontabJob</title>
<polygon fill="none" stroke="#000000" points="132.6234,-60 23.7917,-60 23.7917,-24 132.6234,-24 132.6234,-60"/>
<text text-anchor="start" x="45.2021" y="-44.2" font-family="Courier,monospace" font-size="11.00" fill="#000000">«abstract»</text>
<text text-anchor="start" x="32" y="-33.2" font-family="Courier,monospace" font-size="11.00" fill="#000000">AutoCrontabJob</text>
</g>
</g>
</svg>
